<svg id="Layer_1" data-name="Layer 1" xmlns="http://www.w3.org/2000/svg" viewBox="0 0 1827.79 720"><defs><style>.cls-1{fill:#010101;}.cls-2{fill:#f39124;}.cls-3{fill:#174a8a;}</style></defs><path class="cls-1" d="M242.67,265.84l-42.79-.28c-1.31-4.32-4.55-7.68-9.64-10.12a38.77,38.77,0,0,0-16.84-3.66q-17.29,0-17.29,9.53a6.57,6.57,0,0,0,2.47,5.21c1.68,1.4,6.22,3.25,13.64,5.47l27.86,8.14a73.72,73.72,0,0,1,20.13,9.27q9.31,6.18,13.4,13.48a31.68,31.68,0,0,1,4.08,15.73q0,21.6-20.79,35.77t-55.41,14.18q-29.69,0-51.75-9.81T86.26,320.29l43.19.27q6.54,15.15,32.22,15.18,10.76,0,15.54-3.25c3.17-2.14,4.76-4.55,4.76-7.14a6.61,6.61,0,0,0-1.9-4.79,11.91,11.91,0,0,0-3.95-2.79c-1.42-.58-8-2.71-19.82-6.47q-24.08-7-33.72-11.37a41.47,41.47,0,0,1-16.12-12.77A31.27,31.27,0,0,1,100,267.52q0-19.68,17.62-33.28t53.83-13.61q27.68,0,47.35,9.55t23.9,35.66"/><polygon class="cls-2" points="350.4 375.79 347.69 394.24 347.77 394.24 339.95 440.55 308.5 394.24 289.52 366.05 352.08 366.05 289.52 366.05 352.08 366.05 350.4 375.79"/><polygon class="cls-1" points="522.18 220.91 485.37 365.77 422.69 365.77 459.5 220.91 522.18 220.91"/><polygon class="cls-1" points="654.32 330.96 645.78 365.77 499.34 365.77 535.15 220.63 600.21 220.63 572.95 330.96 654.32 330.96"/><polygon class="cls-1" points="754.96 220.91 718.13 365.77 655.47 365.77 692.25 220.91 754.96 220.91"/><polygon class="cls-1" points="930.12 220.91 897.89 365.77 855.08 365.77 799.18 273.96 781.48 365.77 734.51 365.77 766.75 220.91 818.48 220.91 868.44 305.96 883.96 220.91 930.12 220.91"/><polygon class="cls-1" points="1044.48 275.64 1081.89 365.76 1024.18 365.76 1002.08 305.96 972.24 330.4 964.28 365.76 909.96 365.76 942.58 220.63 997.11 220.63 982 287.15 1054.23 220.63 1110.15 220.63 1044.48 275.64"/><polygon class="cls-1" points="377.37 220.91 313.09 220.91 223.14 366.05 281.56 366.05 287.43 366.05 307.71 329.83 341.35 270.32 349.72 329.83 349.6 329.83 352.51 353.53 354.29 366.05 365.17 366.05 415.97 366.05 377.37 220.91"/><path class="cls-3" d="M790.19,380.86h50l-81.82,150H706.86l-15.16-150h47l4.55,106.06m0,0"/><path class="cls-3" d="M900.8,380.86l-30.3,150h-47l31.81-150Z"/><path class="cls-3" d="M1256.87,420.25H1216l7.58-36.36h130.3l-6.06,36.36h-47l-19.7,113.64h-47Z"/><polygon class="cls-3" points="337.15 529.35 368.97 379.34 408.17 379.34 458.36 464.19 475.58 379.34 517.6 379.34 485.64 530.86 447.9 530.86 397.76 441.47 379.89 530.86 337.15 530.86 337.15 529.35"/><path class="cls-3" d="M641.48,380.86H586.26l-84.4,151.52h49.69l12.88-25.76h45.45v25.76H659Zm-34.63,89.4H580.72l26.13-54.55Z"/><path class="cls-3" d="M1431.49,379.34c-23.61,0-44.55,8.39-59.88,22.36-19.24,17.7-30.19,45.87-30.19,74.28,0,36.56,23.86,65.44,66.46,65.44,24.58,0,45.28-8.38,60.61-22.59,18.75-17.7,29.22-45.41,29.22-74.05C1497.71,407.29,1474.82,379.34,1431.49,379.34Zm14.7,87.88c-5.86,20.35-21.81,34.94-37.88,30.31s-19.5-26.62-13.64-47,21.82-34.94,37.88-30.31S1452.05,446.87,1446.19,467.22Z"/><polygon class="cls-2" points="1206.87 379.34 1123.91 541.42 1089.63 371.77 1135.95 441.8 1206.87 379.34"/><path class="cls-3" d="M972,472.68h27.28l-7.58,24.85h-4.54c-22.7,0-40.55-8.82-40.55-34.86,0-17.8,8.59-32.05,21.59-40.5,9.92-6.24,23.36-9.57,38.13-9.57,15.43,0,29.31,3.78,36.58,6.89l11.24-32.93c-6.83-3.34-24.46-7.35-46.28-7.35-28.87,0-54.43,7.35-73.17,21.59-19.61,14.91-32,36.94-32,65.43,0,23.37,9.48,40.73,23.14,50.74,14.32,10.46,33.5,15.36,54,15.36,21.6,0,43.42-5.34,57.3-9.57l15.43-81.46H976.56Z"/><path class="cls-3" d="M1529,387.14c10.4-2.89,28.31-4.45,46.66-4.45,13.93,0,30.07,1.11,42.46,6.67,12.16,5.57,21.66,15.81,21.66,33.17,0,22.47-13.93,33.82-34,41l-.22.88c8.4,4.23,11.94,14,13.93,25.82,2.43,15.13,4,37.17,7.3,43.62H1586c-1.55-4.45-3.54-14.91-5.75-34.94-2-17.14-8.4-21.14-21.45-21.14h-8l-10.61,56.08h-39.14Zm27.42,61.42h13.71c15.48,0,28.53-6.45,28.53-19.58,0-11.8-11.5-15.13-23.22-15.13a73.25,73.25,0,0,0-12.61.89Z"/><polygon class="cls-3" points="1141.75 444.62 1205.79 541.42 1158.4 306.91 1037.65 533.9 1141.75 444.62"/><polygon class="cls-2" points="1206.83 379.55 1123.97 541.42 1089.73 371.98 1136 441.92 1206.83 379.55"/><polygon class="cls-2" points="1769.09 353.95 1725.31 353.95 1736.52 314.58 1707.36 314.58 1696.15 353.95 1652.42 353.95 1645.64 377.57 1689.42 377.57 1678.21 416.94 1707.36 416.94 1718.58 377.57 1762.31 377.57 1769.09 353.95"/></svg>