<svg id="Layer_1" data-name="Layer 1" xmlns="http://www.w3.org/2000/svg" viewBox="0 0 85.35 85.16"><defs><style>.cls-1{fill:#1c4480;}</style></defs><path class="cls-1" d="M85,40.42v-.17H76.08a1.49,1.49,0,0,1,0-.21c0-.37-.06-.74-.1-1.1,0-.17,0-.34-.06-.51,0-.37-.09-.73-.15-1.09,0-.17,0-.33-.08-.5-.06-.36-.13-.71-.2-1.07,0-.17-.07-.33-.11-.5l-.24-1c-.05-.17-.1-.33-.14-.5-.09-.34-.19-.68-.29-1,0-.17-.11-.34-.16-.51s-.22-.65-.34-1c-.06-.17-.12-.33-.19-.5-.12-.32-.24-.64-.37-.95s-.14-.34-.22-.5c-.13-.31-.26-.61-.4-.92s-.17-.33-.25-.5-.29-.59-.44-.88l-.28-.5-.47-.84-.31-.51-.5-.79-.35-.51c-.17-.26-.34-.51-.52-.76l-.38-.51L69,21.85c-.14-.17-.27-.34-.41-.5s-.37-.45-.57-.67-.29-.34-.44-.5L67,19.55l-.49-.5-.59-.58L65.37,18l-.6-.54L64.21,17l-.61-.5L63,16l-.62-.46-.63-.45-.62-.42-.68-.43-.62-.39-.71-.4-.63-.35-.74-.38-.64-.32-.77-.35-.64-.28-.8-.32-.65-.24-.82-.29c-.22-.07-.44-.15-.66-.21l-.84-.26-.66-.18-.87-.21-.67-.15-.89-.17-.68-.12-.9-.13-.69-.09-.91-.08-.37,0V0H40.8V9.26l-.39,0-1.1.1-.51.06c-.37,0-.73.09-1.09.15l-.5.08-1.07.2-.5.11-1,.25-.5.13-1,.3-.49.16-1,.33-.5.19-1,.38-.5.22-.92.41-.51.25-.25.12A33.38,33.38,0,0,0,9.28,40.25H0v4.49H.38v.17H9.27a1.64,1.64,0,0,1,0,.22c0,.37.06.73.1,1.1,0,.17,0,.34.06.51,0,.36.09.73.15,1.09,0,.17.05.33.08.5.06.36.13.72.2,1.07,0,.17.07.33.11.5.08.35.16.7.25,1.05,0,.17.09.33.13.5.1.34.19.68.3,1,.05.16.1.33.16.49l.33,1c.06.17.13.34.19.5.12.32.25.64.38,1s.14.33.22.5.27.61.41.92.16.34.25.5.29.59.44.88l.28.51.47.84c.11.17.22.34.32.52l.5.78c.11.18.23.35.35.53l.52.74.4.53.52.69.45.54c.17.21.35.43.53.63s.33.37.49.55l.54.58.54.55.54.54.59.54.54.49.64.53.54.45.69.52c.17.14.35.27.53.4s.49.34.74.51l.53.36c.25.17.52.33.78.49l.52.32c.28.17.55.32.83.47s.34.2.52.29l.87.44.51.25.92.41.5.22,1,.37.49.19,1,.34.5.16c.34.11.68.2,1,.29l.5.14,1,.25.5.11,1.07.2.5.08c.36.06.72.1,1.09.15l.51.06,1.1.1.39,0v9.26h4.49V75.88l.37,0c.3,0,.61,0,.91-.09l.69-.08.9-.13.68-.12.89-.17L50,75.1l.86-.21.67-.19.84-.25.66-.21.82-.29.65-.24.8-.32.64-.28.77-.36.64-.31.13-.07A33.36,33.36,0,0,0,76.07,44.91h9.28V40.42Zm-13-.17H68.25A25.72,25.72,0,0,0,45.29,17V13.26A29.6,29.6,0,0,1,71.92,40.25Zm-8.7,4.49v.17h4.55A25.25,25.25,0,0,1,44.91,67.64V63H40.42v4.61A25.25,25.25,0,0,1,17.58,44.91h4.93V40.42h-.38v-.17H17.57A25.25,25.25,0,0,1,40.8,17.4v4.73h4.49V17.46A25.25,25.25,0,0,1,67.77,40.25H62.84v4.49ZM14.72,33.5h0q.21-.66.45-1.29v0c.16-.42.32-.83.5-1.23l0-.08c.17-.39.34-.77.53-1.15a.61.61,0,0,1,.05-.12c.18-.37.37-.73.56-1.08l.09-.17c.18-.34.37-.67.57-1,0-.07.09-.14.13-.22.19-.3.38-.61.58-.9a2.75,2.75,0,0,1,.19-.28c.18-.27.37-.55.57-.82l.24-.32.56-.73.31-.38.54-.64.39-.42c.16-.19.33-.37.51-.55s.3-.32.46-.47l.47-.47c.18-.17.36-.34.55-.5l.43-.39.63-.54.38-.31.73-.56.33-.24c.26-.2.54-.39.81-.57l.28-.19.9-.58.23-.13q.48-.3,1-.57l.17-.1c.28-.15.57-.29.86-.43a29.12,29.12,0,0,1,11-2.85v3.75A25.72,25.72,0,0,0,17.1,40.25H13.41A29.45,29.45,0,0,1,14.72,33.5ZM13.43,44.91H17.1a25.72,25.72,0,0,0,23.32,23.2v3.81A29.58,29.58,0,0,1,13.43,44.91Zm57.2,6.74h0c-.13.44-.28.86-.44,1.29l0,0c-.15.41-.31.82-.48,1.22l0,.08c-.17.39-.34.77-.52,1.15l-.06.12c-.18.36-.36.72-.55,1.07l-.09.18c-.19.33-.37.66-.57,1,0,.08-.09.15-.13.22-.19.31-.38.61-.58.91l-.18.27q-.27.41-.57.81l-.24.32c-.18.25-.37.49-.55.73l-.31.37c-.17.21-.35.43-.53.63l-.38.43-.5.54-.46.47c-.15.15-.31.3-.46.46l-.54.5-.42.38-.62.53-.38.31-.71.56-.32.24-.81.57-.26.18-.9.58-.2.12c-.33.2-.66.4-1,.58l-.15.08-.94.5-.56.27L55,69.4A29.29,29.29,0,0,1,44.91,72V68.12A25.71,25.71,0,0,0,68.24,44.91h3.7A30,30,0,0,1,70.63,51.65Z"/></svg>